<svg xmlns="http://www.w3.org/2000/svg" viewBox="0 0 100 100" role="img" aria-label="Okynus"><title>Okynus</title><g transform="translate(50 52)"><path d="M13.42 -30.15A33 33 0 0 1 32.51 5.69M21.63 -13.51A25.5 25.5 0 0 1 24.87 5.61M19.4 26.7A33 33 0 0 1 -21.18 25.31M0.89 25.48A25.5 25.5 0 0 1 -17.3 18.74M-32.82 3.45A33 33 0 0 1 -11.32 -31M-22.52 -11.97A25.5 25.5 0 0 1 -7.58 -24.35" fill="none" stroke="#0A0A0F" stroke-width="4" stroke-linecap="round"/>
<g color="#0A0A0F" transform="scale(0.36)"><circle r="38.25" fill="none" stroke="currentColor" stroke-width="9.5"/><g fill="none" stroke="currentColor" stroke-width="3.4" stroke-linecap="round" transform="rotate(-14)"><path d="M-2.29 10.3Q-3.52 8.45 -3.52 2.9A3.52 5.28 0 0 1 3.52 2.9V6.87"/><path d="M-6.39 17.64Q-9.39 13.96 -9.39 2.9A9.39 13.24 0 0 1 9.39 2.9V10.98"/><path d="M-12.26 21.63Q-15.26 16.95 -15.26 2.9A15.26 20.15 0 0 1 -12.65,-8.37M-9.81,-12.54A15.26 20.15 0 0 1 15.26 2.9V15.09"/><path d="M-18.14 16.28Q-21.14 12.93 -21.14 2.9A21.14 26 0 0 1 21.14 2.9V12.97"/><path d="M-25.96,-5.59A27.01 30.79 0 0 1 -16.63,-21.36M-10.55,-25.44A27.01 30.79 0 0 1 25.38,-7.63"/></g></g><g transform="translate(0 -33)"><circle r="11.5" fill="#A5D76E" stroke="#0A0A0F" stroke-width="4"/><g color="#0A0A0F" transform="scale(0.14)"><g transform="scale(1.1) translate(0 -1)"><path d="M-14-6V-15a14 14 0 0 1 28 0v9" fill="none" stroke="currentColor" stroke-width="8.5"/>
<path fill-rule="evenodd" fill="currentColor" d="M-16-8h32a7 7 0 0 1 7 7v24a7 7 0 0 1-7 7h-32a7 7 0 0 1-7-7v-24a7 7 0 0 1 7-7zM-2.6 10.4a5.6 5.6 0 1 1 5.2 0V17a2.6 2.6 0 0 1-5.2 0z"/></g></g></g><g transform="translate(28.58 16.5)"><circle r="11.5" fill="#00D2FF" stroke="#0A0A0F" stroke-width="4"/><g color="#0A0A0F" transform="scale(0.14)"><g fill="none" stroke="currentColor" stroke-width="7.5" stroke-linecap="round" transform="scale(1.22) translate(-0.5 1.5)">
<circle cx="-16" cy="-10" r="10"/><path d="M-6.8-6.2 27 8.2M13.2 0.3l-3 7.4M22.2 4.1l-3 7.4"/></g></g></g><g transform="translate(-28.58 16.5)"><circle r="11.5" fill="#FF6464" stroke="#0A0A0F" stroke-width="4"/><g color="#0A0A0F" transform="scale(0.14)"><g fill="none" stroke="currentColor" stroke-linecap="round" stroke-linejoin="round" transform="scale(1.15)">
<path stroke-width="6" d="M-18-27H7l12 12v42h-37z M7-27v12h12"/>
<g stroke-width="3.6"><path d="M-9-15v7M-1-15v7 M7 -1.5v7 M-1 10v7M15 10v7"/>
<ellipse cx="-9" cy="2" rx="2.6" ry="3.5"/><ellipse cx="-1" cy="2" rx="2.6" ry="3.5"/>
<ellipse cx="-9" cy="13.5" rx="2.6" ry="3.5"/><ellipse cx="7" cy="13.5" rx="2.6" ry="3.5"/></g></g></g></g></g></svg>
